# xmcd
#
# Track frame offsets: 
#        150
#        39395
#        75759
#        105303
#        133309
#        171455
#        201660
#        232718
#        267229
#        298048
#        329477
#
# Disc length: 4767 seconds
#
# Revision: 0
# Processed by: cddbd v1.5.2PL0 Copyright (c) Steve Scherf et al.
# Submitted via: ExactAudioCopy v1.3
#
DISCID=99129d0b
DTITLE=Various Artist - Akella Presents - vol. 188 - Long Time Blues-
DTITLE=Rock  CD1
DYEAR=2019
DGENRE=Blues
TTITLE0=Rattlebone - Innocent
TTITLE1=Julian Sas - Anything
TTITLE2=Blues Cousins and Levan Lomidze - Open Ihe Door
TTITLE3=In Layman Terms - Ain't Gonna Fake It No More
TTITLE4=Tommy Z - Blues for K.P.
TTITLE5=Datura4 - The City Of Lights
TTITLE6=Juniper Inc. - Addicted To You
TTITLE7=Matt Pearce and The Mutiny - Some People
TTITLE8=Tony Campanella - Texas Chainsaw
TTITLE9=The Blue Flames - Stormy Monday
TTITLE10=The Steel Woods - Wherever You Are
EXTD=
EXTT0=
EXTT1=
EXTT2=
EXTT3=
EXTT4=
EXTT5=
EXTT6=
EXTT7=
EXTT8=
EXTT9=
EXTT10=
PLAYORDER=
